<svg width="54" height="38" viewBox="0 0 54 38" fill="none" xmlns="http://www.w3.org/2000/svg">
<rect x="3" y="20" width="48" height="11" fill="#D60000"/>
<circle cx="14.5" cy="30.5" r="7.5" fill="black"/>
<circle cx="38.5" cy="30.5" r="7.5" fill="black"/>
<circle cx="14.5" cy="30.5" r="4.5" fill="white"/>
<circle cx="38.5" cy="30.5" r="4.5" fill="white"/>
<circle cx="2.5" cy="25.5" r="2.5" fill="#D8FF3C"/>
<circle cx="50.5" cy="25.5" r="2.5" fill="#D8FF3C"/>
<rect y="20" width="3" height="11" fill="#A0C1B8"/>
<rect x="51" y="20" width="3" height="11" fill="#A0C1B8"/>
<rect x="3" y="18" width="48" height="2" fill="#DBDBDB"/>
<rect x="8" y="2" width="9" height="16" rx="1" fill="#D60000"/>
<line x1="3.52566" y1="17.8419" x2="8.52566" y2="2.84189" stroke="#D60000"/>
<rect x="8" y="13" width="43" height="5" fill="#D60000"/>
<rect x="4" y="15" width="4" height="3" fill="#D60000"/>
<rect x="5" y="12" width="3" height="3" fill="#D60000"/>
<rect x="6" y="9" width="2" height="3" fill="#D60000"/>
<rect x="7" y="6" width="1" height="3" fill="#D60000"/>
<rect x="12" width="1" height="2" rx="0.5" fill="#D60000"/>
<rect x="11" y="1" width="3" height="1" rx="0.5" fill="#DBDBDB"/>
<rect x="8" y="5" width="3" height="11" fill="#267DFF"/>
<rect x="12" y="5" width="3" height="11" fill="#267DFF"/>
<rect x="17" y="6" width="1" height="7" fill="#D9D9D9"/>
<rect x="18" y="6" width="33" height="1" fill="#D9D9D9"/>
<rect x="18" y="12" width="33" height="1" fill="#D9D9D9"/>
<rect x="18" y="9" width="33" height="1" fill="#D9D9D9"/>
<rect x="26" y="7" width="1" height="5" fill="#D9D9D9"/>
<rect x="34" y="7" width="1" height="5" fill="#D9D9D9"/>
<rect x="42" y="7" width="1" height="5" fill="#D9D9D9"/>
</svg>
