<svg width="312" height="162" viewBox="0 0 312 162" fill="none" xmlns="http://www.w3.org/2000/svg">
<g filter="url(#filter0_d_631_417)">
<path d="M109 0.0561523C129.717 0.0561523 147.576 11.9332 155.75 29.0562C164.061 21.6195 175.224 17.0659 187.5 17.0659C213.181 17.0659 234 36.9892 234 61.5659C234 61.855 233.995 62.1434 233.989 62.4312C239.801 58.3967 246.657 56.0659 254 56.0659C274.987 56.0659 292 75.0938 292 98.5659C292 121.671 275.514 140.471 254.98 141.052L254 141.066H54V140.667C51.8747 140.928 49.7051 141.066 47.5 141.066C21.2666 141.066 0.000147486 122.038 0 98.5659C0 75.0938 21.2665 56.0659 47.5 56.0659C51.1113 56.0659 54.6282 56.4277 58.0088 57.1108C57.6735 54.806 57.5 52.4508 57.5 50.0562C57.5 22.4419 80.5573 0.0561523 109 0.0561523Z" fill="white"/>
</g>
<defs>
<filter id="filter0_d_631_417" x="0" y="0.0561523" width="312" height="161.01" filterUnits="userSpaceOnUse" color-interpolation-filters="sRGB">
<feFlood flood-opacity="0" result="BackgroundImageFix"/>
<feColorMatrix in="SourceAlpha" type="matrix" values="0 0 0 0 0 0 0 0 0 0 0 0 0 0 0 0 0 0 127 0" result="hardAlpha"/>
<feOffset dx="10" dy="10"/>
<feGaussianBlur stdDeviation="5"/>
<feComposite in2="hardAlpha" operator="out"/>
<feColorMatrix type="matrix" values="0 0 0 0 0 0 0 0 0 0 0 0 0 0 0 0 0 0 0.25 0"/>
<feBlend mode="normal" in2="BackgroundImageFix" result="effect1_dropShadow_631_417"/>
<feBlend mode="normal" in="SourceGraphic" in2="effect1_dropShadow_631_417" result="shape"/>
</filter>
</defs>
</svg>
